<svg  viewBox="0 0 350 566" fill="none" xmlns="http://www.w3.org/2000/svg"  pointer-events="none">
<rect width="350" height="566" rx="8" fill="#518A3E"/>
<mask id="mask0_3_49" style="mask-type:alpha" maskUnits="userSpaceOnUse" x="0" y="0" width="350" height="566">
<rect width="350" height="566" rx="8" fill="#31701C"/>
</mask>
<g mask="url(#mask0_3_49)">
<path fill-rule="evenodd" clip-rule="evenodd" d="M175 570C333.506 570 462 441.506 462 283C462 124.494 333.506 -4 175 -4C16.4943 -4 -112 124.494 -112 283C-112 441.506 16.4943 570 175 570ZM380 283C380 396.218 288.218 488 175 488C61.7816 488 -30 396.218 -30 283C-30 169.782 61.7816 78 175 78C288.218 78 380 169.782 380 283ZM175 406C242.931 406 298 350.931 298 283C298 215.069 242.931 160 175 160C107.069 160 52 215.069 52 283C52 350.931 107.069 406 175 406ZM175 324C197.644 324 216 305.644 216 283C216 260.356 197.644 242 175 242C152.356 242 134 260.356 134 283C134 305.644 152.356 324 175 324Z" fill="#306A1B"/>
</g>
<line x1="350" y1="284" y2="284" stroke="#7ABE7040" stroke-width="2"/>
<circle cx="175" cy="284" r="40" stroke="#7ABE7040" stroke-width="2"/>
<path d="M254.232 566V500C254.232 497.791 252.441 496 250.232 496H102C99.7909 496 98 497.791 98 500V566" stroke="#7ABE7040" stroke-width="2"/>
<path d="M205 566V544C205 541.791 203.209 540 201 540H151C148.791 540 147 541.791 147 544V566" stroke="#7ABE7040" stroke-width="2"/>
<path d="M97 1.36582e-05L97 66C97 68.2092 98.7908 70 101 70L249.232 70C251.441 70 253.232 68.2091 253.232 66L253.232 0" stroke="#7ABE7040" stroke-width="2"/>
<path d="M147.232 4.53408e-06L147.232 22C147.232 24.2091 149.023 26 151.232 26L201.232 26C203.441 26 205.232 24.2091 205.232 22L205.232 -5.36442e-07" stroke="#7ABE7040" stroke-width="2"/>
</svg>



