<svg width="21" height="21" xmlns="http://www.w3.org/2000/svg" viewBox="0 0 21 21">
  <g data-name="레이어 1">
    <path  fill= "#ea3829" opacity=".4" d="m20,11c0-1.31-.25-2.57-.72-3.72-.65.45-1.44.72-2.28.72-.94,0-1.81-.33-2.5-.88-.92-.73-1.5-1.86-1.5-3.12,0-.75.21-1.46.58-2.06.04-.07.09-.14.15-.21-1.15-.47-2.41-.73-3.73-.73C4.48,1,0,5.48,0,11s4.48,10,10,10,10-4.48,10-10Z"/>
    <path fill= "#ea3829" d="m17,8c-.94,0-1.81-.33-2.5-.88-.92-.73-1.5-1.86-1.5-3.12,0-.75.21-1.46.58-2.06.69-1.16,1.96-1.94,3.42-1.94,1.01,0,1.93.37,2.63,1,.31.26.58.58.79.94.37.6.58,1.31.58,2.06,0,2.21-1.79,4-4,4Zm1.5-4.73h-.75v-.78c0-.41-.34-.75-.75-.75s-.75.34-.75.75v.78h-.75c-.41,0-.75.34-.75.75s.34.75.75.75h.75v.71c0,.41.34.75.75.75s.75-.34.75-.75v-.71h.75c.41,0,.75-.34.75-.75s-.34-.75-.75-.75Z"/>
    <path fill= "#ea3829" d="m7.62,14.35c-.41,0-.75-.34-.75-.75v-3.39l-.19.22c-.28.31-.75.33-1.06.06-.31-.28-.33-.75-.06-1.06l1.5-1.67c.21-.23.54-.31.83-.2.29.11.48.39.48.7v5.35c0,.41-.33.74-.75.74Z"/>
    <path fill= "#ea3829" d="m13.81,10.86c.38-.33.58-.78.58-1.32,0-1.23-.91-2.04-2.28-2.04s-2.28.83-2.28,2.04c0,.52.2.99.58,1.32-.5.38-.78.94-.78,1.56,0,1.29.95,2.08,2.5,2.08s2.5-.8,2.5-2.08c-.02-.64-.3-1.19-.81-1.56Zm-1.7-.64c-.42,0-.69-.24-.69-.6,0-.45.36-.59.69-.59s.69.16.69.59c0,.37-.27.6-.69.6Zm0,1.32c.44,0,.91.19.91.72,0,.46-.34.73-.91.73s-.91-.27-.91-.73c0-.65.69-.72.91-.72Z"/>
  </g>
</svg>