<svg width="24" height="24" viewBox="0 0 24 24" fill="none" xmlns="http://www.w3.org/2000/svg">
<path opacity="0.4" d="M3.66797 2.87988V14.8499C3.66797 15.8299 4.12797 16.7599 4.91797 17.3499L10.128 21.2499C11.238 22.0799 12.768 22.0799 13.878 21.2499L19.088 17.3499C19.878 16.7599 20.338 15.8299 20.338 14.8499V2.87988H3.66797Z" fill="#66686A"/>
<path d="M22 3.62891H2C1.59 3.62891 1.25 3.28891 1.25 2.87891C1.25 2.46891 1.59 2.12891 2 2.12891H22C22.41 2.12891 22.75 2.46891 22.75 2.87891C22.75 3.28891 22.41 3.62891 22 3.62891Z" fill="#66686A"/>
<path fill-rule="evenodd" clip-rule="evenodd" d="M12 17.5029C14.6234 17.5029 16.75 15.3763 16.75 12.7529C16.75 10.1296 14.6234 8.00293 12 8.00293C9.37665 8.00293 7.25 10.1296 7.25 12.7529C7.25 15.3763 9.37665 17.5029 12 17.5029ZM8.42188 12.4421V13.071C8.42188 13.4426 8.7256 13.7499 9.10079 13.7499C9.74754 13.7499 10.012 14.2072 9.68679 14.7682C9.50099 15.0898 9.61175 15.5079 9.93692 15.6937L10.5551 16.0474C10.8374 16.2154 11.2018 16.1153 11.3698 15.833L11.4091 15.7652C11.7342 15.2042 12.2631 15.2042 12.5847 15.7652L12.624 15.833C12.7919 16.1153 13.1564 16.2154 13.4387 16.0474L14.0568 15.6937C14.382 15.5079 14.4928 15.0934 14.307 14.7682C13.9818 14.2072 14.2462 13.7499 14.893 13.7499C15.2682 13.7499 15.5719 13.4426 15.5719 13.071V12.4421C15.5719 12.0669 15.2646 11.7632 14.893 11.7632C14.2462 11.7632 13.9818 11.3058 14.307 10.7448C14.4928 10.4232 14.382 10.0051 14.0568 9.81933L13.4387 9.46558C13.1564 9.29764 12.7919 9.39769 12.624 9.67997L12.5847 9.74786C12.2595 10.3089 11.7307 10.3089 11.4091 9.74786L11.3698 9.67997C11.2018 9.39769 10.8374 9.29764 10.5551 9.46558L9.93692 9.81933C9.61175 10.0051 9.50099 10.4232 9.68679 10.7448C10.012 11.3058 9.74754 11.7632 9.10079 11.7632C8.7256 11.7632 8.42188 12.0705 8.42188 12.4421Z" fill="#66686A"/>
<path d="M11.9953 14.0706C12.7261 14.0706 13.3186 13.4781 13.3186 12.7472C13.3186 12.0163 12.7261 11.4238 11.9953 11.4238C11.2644 11.4238 10.6719 12.0163 10.6719 12.7472C10.6719 13.4781 11.2644 14.0706 11.9953 14.0706Z" fill="#66686A"/>
<path d="M14.2617 6.50391H9.76172C9.35172 6.50391 9.01172 6.16391 9.01172 5.75391C9.01172 5.34391 9.35172 5.00391 9.76172 5.00391H14.2617C14.6717 5.00391 15.0117 5.34391 15.0117 5.75391C15.0117 6.16391 14.6717 6.50391 14.2617 6.50391Z" fill="#66686A"/>
</svg>
