
<svg  xmlns="http://www.w3.org/2000/svg" viewBox="0 0 44.1 52.5">
  <g >
    <path fill="currentColor"   stroke-width="0"  fill-rule="evenodd" isolation="isolate" opacity="0.4" class="cls-2" d="m24.78.41l14.36,5.38c2.74,1.04,4.99,4.28,4.96,7.23v21.15c0,2.12-1.38,4.88-3.08,6.16l-14.36,10.73c-2.53,1.91-6.68,1.91-9.22,0l-14.36-10.73c-1.7-1.25-3.08-4.05-3.08-6.16V13.02c0-2.95,2.25-6.19,5.01-7.23L19.38.41c1.49-.55,3.92-.55,5.41,0Z"/>
    <path fill="currentColor"   stroke-width="0"  class="cls-3" d="m16.45,9.91l.66,1.32c.09.18.33.36.53.39l1.2.2c.77.13.94.68.39,1.23l-.93.93c-.15.15-.24.46-.19.68l.27,1.15c.21.91-.28,1.27-1.08.79l-1.12-.67c-.2-.12-.54-.12-.74,0l-1.12.67c-.8.47-1.29.12-1.08-.79l.27-1.15c.05-.22-.04-.52-.19-.68l-.93-.93c-.55-.55-.37-1.1.39-1.23l1.2-.2c.2-.03.44-.21.53-.39l.66-1.32c.35-.72.93-.72,1.3,0Z"/>
    <path fill="currentColor"   stroke-width="0"  class="cls-3" d="m28.95,9.91l.66,1.32c.09.18.33.36.53.39l1.2.2c.77.13.94.68.39,1.23l-.93.93c-.15.15-.24.46-.19.68l.27,1.15c.21.91-.28,1.27-1.08.79l-1.12-.67c-.2-.12-.54-.12-.74,0l-1.12.67c-.8.47-1.29.12-1.08-.79l.27-1.15c.05-.22-.04-.52-.19-.68l-.93-.93c-.55-.55-.37-1.1.39-1.23l1.2-.2c.2-.03.44-.21.53-.39l.66-1.32c.35-.72.93-.72,1.3,0Z"/>
    <path fill="currentColor"   stroke-width="0" fill-rule="evenodd" class="cls-1" d="m22.05,43.12c6.56,0,11.88-5.32,11.88-11.88s-5.32-11.88-11.88-11.88-11.88,5.32-11.88,11.88,5.32,11.88,11.88,11.88Zm-8.95-12.65v1.57c0,.93.76,1.7,1.7,1.7,1.62,0,2.28,1.14,1.46,2.55-.46.8-.19,1.85.63,2.31l1.55.88c.71.42,1.62.17,2.04-.54l.1-.17c.81-1.4,2.14-1.4,2.94,0l.1.17c.42.71,1.33.96,2.04.54l1.55-.88c.81-.46,1.09-1.5.63-2.31-.81-1.4-.15-2.55,1.47-2.55.94,0,1.7-.77,1.7-1.7v-1.57c0-.94-.77-1.7-1.7-1.7-1.62,0-2.28-1.14-1.47-2.55.46-.8.19-1.85-.63-2.31l-1.55-.88c-.71-.42-1.62-.17-2.04.54l-.1.17c-.81,1.4-2.14,1.4-2.94,0l-.1-.17c-.42-.71-1.33-.96-2.04-.54l-1.55.88c-.81.46-1.09,1.51-.63,2.31.81,1.4.15,2.55-1.46,2.55-.94,0-1.7.77-1.7,1.7Z"/>
    <path fill="currentColor"   stroke-width="0"  class="cls-3" d="m22.04,34.54c1.83,0,3.31-1.48,3.31-3.31s-1.48-3.31-3.31-3.31-3.31,1.48-3.31,3.31,1.48,3.31,3.31,3.31Z"/>
  </g>
</svg>