<svg width="18" height="17" viewBox="0 0 18 17" fill="none" xmlns="http://www.w3.org/2000/svg">
<path d="M16.0196 1.48004C14.0796 -0.459965 12.1796 -0.509965 10.1896 1.48004L8.97959 2.69004C8.87959 2.79004 8.83959 2.95004 8.87959 3.09004C9.63959 5.74004 11.7596 7.86003 14.4096 8.62004C14.4496 8.63004 14.4896 8.64004 14.5296 8.64004C14.6396 8.64004 14.7396 8.60004 14.8196 8.52004L16.0196 7.31004C17.0096 6.33004 17.4896 5.38004 17.4896 4.42004C17.4996 3.43004 17.0196 2.47004 16.0196 1.48004Z" fill="currentColor"/>
<path d="M12.6103 9.53005C12.3203 9.39005 12.0403 9.25005 11.7703 9.09005C11.5503 8.96005 11.3403 8.82005 11.1303 8.67005C10.9603 8.56005 10.7603 8.40005 10.5703 8.24005C10.5503 8.23005 10.4803 8.17005 10.4003 8.09005C10.0703 7.81005 9.70032 7.45005 9.37032 7.05005C9.34032 7.03005 9.29032 6.96005 9.22032 6.87005C9.12032 6.75005 8.95032 6.55005 8.80032 6.32005C8.68032 6.17005 8.54032 5.95005 8.41032 5.73005C8.25032 5.46005 8.11032 5.19005 7.97032 4.91005C7.94913 4.86465 7.92864 4.81949 7.90876 4.77458C7.76119 4.44127 7.32655 4.34382 7.06879 4.60158L1.34032 10.33C1.21032 10.46 1.09032 10.71 1.06032 10.88L0.520319 14.71C0.420319 15.39 0.610319 16.03 1.03032 16.46C1.39032 16.81 1.89032 17 2.43032 17C2.55032 17 2.67032 16.99 2.79032 16.97L6.63032 16.43C6.81032 16.4 7.06032 16.28 7.18032 16.15L12.9016 10.4287C13.1612 10.1692 13.0633 9.72372 12.7257 9.57966C12.6877 9.56345 12.6492 9.54692 12.6103 9.53005Z" fill="currentColor"/>
</svg>
