<svg width="21" height="21"  xmlns="http://www.w3.org/2000/svg" viewBox="0 0 18.23 20.88">
  <g>
    <path fill="#9c79ff" opacity=".4" isolation="isolate" d="m1.17,2.06C1.85.7,2.75,0,3.87,0c.26,0,.52.03.77.09,1.17.29,2.06,1.1,2.65,2.41.53,1.2.8,2.77.81,4.77,0,1.65-.42,3.27-.95,4.83-1.02,3.01-.56,2.74-.62,5.07-.06,2.19-.77,3.77-3.14,3.71-1.96-.06-2.57-2.3-2.53-3.87.06-2.12.42-1.93-.45-6.03C.04,9.26-.14,7.48.13,5.73c.25-1.57.59-2.77,1.04-3.67Z"/>
    <path fill="#9c79ff" d="m17.06,2.06C16.38.7,15.48,0,14.36,0c-.26,0-.52.03-.77.09-1.17.29-2.06,1.1-2.65,2.41-.53,1.2-.8,2.77-.81,4.77,0,1.65.42,3.27.95,4.83,1.02,3.01.56,2.74.62,5.07.06,2.19.77,3.77,3.14,3.71,1.96-.06,2.58-2.3,2.53-3.87-.06-2.12-.42-1.93.44-6.03.37-1.73.55-3.5.28-5.25-.25-1.57-.59-2.77-1.04-3.67Z"/>
  </g>
</svg>