<svg width="21" height="21" xmlns="http://www.w3.org/2000/svg" viewBox="0 0 18.14 14.01">
  <g data-name="레이어 1">
    <path fill="#fb923c" opacity=".4" d="m16.92,10.2c0,.39-.31.7-.7.7h-1.32v1.9c0,.39-.31.7-.7.7s-.7-.31-.7-.7v-1.9h-1.38c-.39,0-.7-.31-.7-.7s.31-.7.7-.7h1.38v-1.66c.22.04.45.06.69.06s.48-.02.71-.07v1.67h1.32c.39,0,.7.31.7.7Z"/>
    <path fill="#fb923c"  d="m14.19,0c-2.18,0-3.95,1.77-3.95,3.95,0,1.94,1.41,3.56,3.26,3.89.22.04.45.06.69.06s.48-.02.71-.07c1.84-.33,3.24-1.94,3.24-3.88,0-2.18-1.77-3.95-3.95-3.95Z"/>
    <path fill="#fb923c"  d="m4.66,6.18c-.23-.05-.47-.07-.71-.07s-.48.02-.71.07c-1.84.33-3.24,1.93-3.24,3.88,0,2.18,1.77,3.95,3.95,3.95s3.95-1.77,3.95-3.95c0-1.95-1.4-3.55-3.24-3.88Z"/>
    <path fill="#fb923c" opacity=".4" d="m7.58,4.64c-.28.27-.74.27-1.01,0l-1.91-1.91v3.45c-.23-.05-.47-.07-.71-.07s-.48.02-.71.07v-3.45s-1.91,1.91-1.91,1.91c-.28.27-.74.27-1.01,0S.04,3.91.32,3.63L3.44.51c.07-.07.14-.12.24-.16.17-.07.37-.07.53,0,.1.04.17.09.24.16l3.13,3.12c.27.28.27.73,0,1.01Z"/>
  </g>
</svg>