<svg width="28" height="28" viewBox="0 0 28 28" fill="none">
<path d="M25.6683 16.2176V18.8893C25.6683 23.136 23.1366 25.6676 18.8899 25.6676H9.11328C6.13828 25.6676 3.99161 24.4193 2.98828 22.2026L3.11661 22.1093L8.85661 18.2593C9.78995 17.6293 11.1083 17.6993 11.9366 18.4226L12.3333 18.7493C13.2433 19.531 14.7133 19.531 15.6233 18.7493L20.4766 14.5843C21.3866 13.8026 22.8566 13.8026 23.7666 14.5843L25.6683 16.2176Z" fill="currentColor"/>
<path opacity="0.4" d="M24.4637 9.33398H21.0337C19.552 9.33398 18.6654 8.44732 18.6654 6.96565V3.53565C18.6654 3.06898 18.7587 2.67232 18.922 2.33398C18.9104 2.33398 18.8987 2.33398 18.887 2.33398H9.11036C4.8637 2.33398 2.33203 4.86565 2.33203 9.11232V18.889C2.33203 20.1607 2.5537 21.269 2.98536 22.2023L3.1137 22.109L8.8537 18.259C9.78703 17.629 11.1054 17.699 11.9337 18.4223L12.3304 18.749C13.2404 19.5306 14.7104 19.5306 15.6204 18.749L20.4737 14.584C21.3837 13.8023 22.8537 13.8023 23.7637 14.584L25.6654 16.2173V9.11232C25.6654 9.10065 25.6654 9.08898 25.6654 9.07732C25.327 9.24065 24.9304 9.33398 24.4637 9.33398Z" fill="currentColor"/>
<path d="M10.4993 12.11C12.0328 12.11 13.276 10.8668 13.276 9.33331C13.276 7.7998 12.0328 6.55664 10.4993 6.55664C8.96581 6.55664 7.72266 7.7998 7.72266 9.33331C7.72266 10.8668 8.96581 12.11 10.4993 12.11Z" fill="currentColor"/>
<path d="M24.4663 1.16602H21.0363C19.5546 1.16602 18.668 2.05268 18.668 3.53435V6.96435C18.668 8.44601 19.5546 9.33268 21.0363 9.33268H24.4663C25.948 9.33268 26.8346 8.44601 26.8346 6.96435V3.53435C26.8346 2.05268 25.948 1.16602 24.4663 1.16602ZM25.563 5.75102C25.4463 5.86768 25.2713 5.94935 25.0846 5.96102H23.4396L23.4513 7.58268C23.4396 7.78102 23.3696 7.94435 23.2296 8.08435C23.113 8.20101 22.938 8.28268 22.7513 8.28268C22.3663 8.28268 22.0513 7.96768 22.0513 7.58268V5.94935L20.418 5.96102C20.033 5.96102 19.718 5.63435 19.718 5.24935C19.718 4.86435 20.033 4.54935 20.418 4.54935L22.0513 4.56102V2.92768C22.0513 2.54268 22.3663 2.21602 22.7513 2.21602C23.1363 2.21602 23.4513 2.54268 23.4513 2.92768L23.4396 4.54935H25.0846C25.4696 4.54935 25.7846 4.86435 25.7846 5.24935C25.773 5.44768 25.6913 5.61102 25.563 5.75102Z" fill="currentColor"/>
</svg>
