<svg width="20" height="19" viewBox="0 0 20 19" fill="currentColor" xmlns="http://www.w3.org/2000/svg">
<path d="M5.19091 7.53636C5.10254 7.45606 5.00108 7.39149 4.89091 7.34545C4.72535 7.27584 4.54289 7.25682 4.36653 7.29079C4.19018 7.32477 4.02784 7.41022 3.9 7.53636C3.81724 7.62282 3.75236 7.72477 3.70909 7.83636C3.63947 8.00192 3.62045 8.18439 3.65443 8.36074C3.68841 8.53709 3.77386 8.69943 3.9 8.82727C3.98836 8.90757 4.08983 8.97214 4.2 9.01818C4.36521 9.08431 4.54619 9.1005 4.72051 9.06474C4.89483 9.02898 5.05482 8.94285 5.18065 8.81702C5.30648 8.69119 5.39262 8.53119 5.42838 8.35687C5.46413 8.18255 5.44795 8.00157 5.38182 7.83636C5.33855 7.72477 5.27367 7.62282 5.19091 7.53636ZM7.53636 5.19091C7.62131 5.27516 7.72205 5.34182 7.83281 5.38706C7.94357 5.4323 8.06218 5.45524 8.18182 5.45455C8.30107 5.45762 8.41938 5.43271 8.52727 5.38182C8.63744 5.33578 8.73891 5.27121 8.82727 5.19091C8.90757 5.10254 8.97214 5.00108 9.01818 4.89091C9.06628 4.78209 9.09112 4.66443 9.09112 4.54545C9.09112 4.42648 9.06628 4.30882 9.01818 4.2C8.97214 4.08983 8.90757 3.98836 8.82727 3.9C8.74276 3.81479 8.64221 3.74716 8.53143 3.70101C8.42065 3.65485 8.30183 3.63109 8.18182 3.63109C8.06181 3.63109 7.94298 3.65485 7.8322 3.70101C7.72142 3.74716 7.62088 3.81479 7.53636 3.9C7.45606 3.98836 7.39149 4.08983 7.34545 4.2C7.29736 4.30882 7.27252 4.42648 7.27252 4.54545C7.27252 4.66443 7.29736 4.78209 7.34545 4.89091C7.39149 5.00108 7.45606 5.10254 7.53636 5.19091ZM5.19091 3.9C5.06375 3.77179 4.9013 3.68435 4.72426 3.64884C4.54721 3.61332 4.3636 3.63133 4.19683 3.70057C4.03007 3.76981 3.8877 3.88715 3.78788 4.03762C3.68806 4.1881 3.63531 4.36489 3.63636 4.54545C3.6378 4.66425 3.66251 4.78162 3.70909 4.89091C3.75513 5.00108 3.8197 5.10254 3.9 5.19091C3.98495 5.27516 4.08569 5.34182 4.19645 5.38706C4.30721 5.4323 4.42581 5.45524 4.54545 5.45455C4.66471 5.45762 4.78302 5.43271 4.89091 5.38182C5.00108 5.33578 5.10254 5.27121 5.19091 5.19091C5.27121 5.10254 5.33578 5.00108 5.38182 4.89091C5.42991 4.78209 5.45476 4.66443 5.45476 4.54545C5.45476 4.42648 5.42991 4.30882 5.38182 4.2C5.33578 4.08983 5.27121 3.98836 5.19091 3.9ZM11.1727 14.8091L10 15.9909L8.82727 14.8091C8.65609 14.6379 8.42391 14.5417 8.18182 14.5417C7.93973 14.5417 7.70755 14.6379 7.53636 14.8091C7.36518 14.9803 7.26901 15.2125 7.26901 15.4545C7.26901 15.6966 7.36518 15.9288 7.53636 16.1L9.35455 17.9182C9.43906 18.0034 9.5396 18.071 9.65039 18.1172C9.76117 18.1633 9.87999 18.1871 10 18.1871C10.12 18.1871 10.2388 18.1633 10.3496 18.1172C10.4604 18.071 10.5609 18.0034 10.6455 17.9182L12.4636 16.1C12.6348 15.9288 12.731 15.6966 12.731 15.4545C12.731 15.2125 12.6348 14.9803 12.4636 14.8091C12.2925 14.6379 12.0603 14.5417 11.8182 14.5417C11.5761 14.5417 11.3439 14.6379 11.1727 14.8091ZM16.1 3.9C15.9728 3.77179 15.8104 3.68435 15.6333 3.64884C15.4563 3.61332 15.2727 3.63133 15.1059 3.70057C14.9392 3.76981 14.7968 3.88715 14.697 4.03762C14.5972 4.1881 14.5444 4.36489 14.5455 4.54545C14.5424 4.66471 14.5673 4.78302 14.6182 4.89091C14.6642 5.00108 14.7288 5.10254 14.8091 5.19091C14.8936 5.27612 14.9941 5.34375 15.1049 5.3899C15.2157 5.43605 15.3345 5.45982 15.4545 5.45982C15.5746 5.45982 15.6934 5.43605 15.8042 5.3899C15.9149 5.34375 16.0155 5.27612 16.1 5.19091C16.1803 5.10254 16.2449 5.00108 16.2909 4.89091C16.3418 4.78302 16.3667 4.66471 16.3636 4.54545C16.3622 4.42666 16.3375 4.30929 16.2909 4.2C16.2449 4.08983 16.1803 3.98836 16.1 3.9ZM11.8182 7.27273H8.18182C7.94074 7.27276 7.70954 7.36856 7.53908 7.53904C7.36863 7.70953 7.27287 7.94074 7.27287 8.18182C7.27287 8.4229 7.36863 8.65411 7.53908 8.82459C7.70954 8.99508 7.94074 9.09087 8.18182 9.09091H11.8182C12.0593 9.09087 12.2905 8.99508 12.4609 8.82459C12.6314 8.65411 12.7271 8.4229 12.7271 8.18182C12.7271 7.94074 12.6314 7.70953 12.4609 7.53904C12.2905 7.36856 12.0593 7.27276 11.8182 7.27273ZM17.2727 0H2.72727C2.00396 0 1.31026 0.287337 0.7988 0.7988C0.287337 1.31026 0 2.00395 0 2.72727V10C0 10.7233 0.287337 11.417 0.7988 11.9285C1.31026 12.4399 2.00396 12.7273 2.72727 12.7273H17.2727C17.996 12.7273 18.6897 12.4399 19.2012 11.9285C19.7127 11.417 20 10.7233 20 10V2.72727C20 2.00395 19.7127 1.31026 19.2012 0.7988C18.6897 0.287337 17.996 0 17.2727 0ZM18.1818 10C18.1818 10.2411 18.086 10.4723 17.9156 10.6428C17.7451 10.8133 17.5138 10.9091 17.2727 10.9091H2.72727C2.48617 10.9091 2.25494 10.8133 2.08445 10.6428C1.91396 10.4723 1.81818 10.2411 1.81818 10V2.72727C1.81818 2.48617 1.91396 2.25494 2.08445 2.08445C2.25494 1.91396 2.48617 1.81818 2.72727 1.81818H17.2727C17.5138 1.81818 17.7451 1.91396 17.9156 2.08445C18.086 2.25494 18.1818 2.48617 18.1818 2.72727V10ZM16.1 7.53636C16.0135 7.4536 15.9116 7.38872 15.8 7.34545C15.6915 7.29624 15.5737 7.27078 15.4545 7.27078C15.3354 7.27078 15.2176 7.29624 15.1091 7.34545C14.9989 7.39149 14.8975 7.45606 14.8091 7.53636C14.643 7.71058 14.5488 7.94112 14.5455 8.18182C14.5439 8.31706 14.5725 8.45095 14.6292 8.57373C14.6859 8.69652 14.7693 8.8051 14.8733 8.89156C14.9773 8.97803 15.0993 9.0402 15.2304 9.07354C15.3614 9.10688 15.4983 9.11056 15.631 9.0843C15.7637 9.05804 15.8888 9.00251 15.9973 8.92175C16.1058 8.84099 16.1949 8.73704 16.2581 8.61748C16.3214 8.49792 16.3571 8.36576 16.3628 8.23063C16.3684 8.0955 16.3439 7.9608 16.2909 7.83636C16.2476 7.72477 16.1828 7.62282 16.1 7.53636ZM11.4727 3.70909C11.3626 3.75513 11.2611 3.8197 11.1727 3.9C11.0066 4.07421 10.9124 4.30476 10.9091 4.54545C10.9105 4.66425 10.9352 4.78162 10.9818 4.89091C11.0279 5.00108 11.0924 5.10254 11.1727 5.19091C11.2577 5.27516 11.3584 5.34182 11.4692 5.38706C11.5799 5.4323 11.6985 5.45524 11.8182 5.45455C11.9374 5.45762 12.0557 5.43271 12.1636 5.38182C12.2738 5.33578 12.3753 5.27121 12.4636 5.19091C12.5439 5.10254 12.6085 5.00108 12.6545 4.89091C12.7054 4.78302 12.7303 4.66471 12.7273 4.54545C12.7239 4.30476 12.6298 4.07421 12.4636 3.9C12.3358 3.77386 12.1735 3.68841 11.9971 3.65443C11.8207 3.62045 11.6383 3.63947 11.4727 3.70909Z" fill="currentColor"/>
</svg>
