<svg xmlns="http://www.w3.org/2000/svg" width="22" height="22" viewBox="0 0 22 22" fill="currentColor">
  <path d="M20.1654 10.3132H18.2954C17.9654 6.82065 15.1787 4.02482 11.6862 3.70398V1.83398C11.6862 1.45815 11.3745 1.14648 10.9987 1.14648C10.6229 1.14648 10.3112 1.45815 10.3112 1.83398V3.70398C6.8187 4.03398 4.02286 6.82065 3.70203 10.3132H1.83203C1.4562 10.3132 1.14453 10.6248 1.14453 11.0007C1.14453 11.3765 1.4562 11.6882 1.83203 11.6882H3.70203C4.03203 15.1807 6.8187 17.9765 10.3112 18.2973V20.1673C10.3112 20.5432 10.6229 20.8548 10.9987 20.8548C11.3745 20.8548 11.6862 20.5432 11.6862 20.1673V18.2973C15.1787 17.9673 17.9745 15.1807 18.2954 11.6882H20.1654C20.5412 11.6882 20.8529 11.3765 20.8529 11.0007C20.8529 10.6248 20.5412 10.3132 20.1654 10.3132ZM10.9987 13.8607C9.42203 13.8607 8.1387 12.5773 8.1387 11.0007C8.1387 9.42398 9.42203 8.14065 10.9987 8.14065C12.5754 8.14065 13.8587 9.42398 13.8587 11.0007C13.8587 12.5773 12.5754 13.8607 10.9987 13.8607Z" fill="currentColor"/>
</svg>