<svg xmlns="http://www.w3.org/2000/svg" width="22" height="22" viewBox="0 0 22 22" fill="currentColor">
  <path d="M6.99266 3.27286C7.15709 3.18317 7.33182 3.32116 7.33182 3.50846V15.9136C7.33182 16.1307 7.18323 16.3139 6.99266 16.4179V16.4179L4.83849 17.6462C3.33516 18.5079 2.09766 17.7929 2.09766 16.0512V7.13203C2.09766 6.55453 2.51016 5.83953 3.02349 5.5462L6.99266 3.27286V3.27286Z" fill="currentColor"/>
  <path d="M13.4719 5.58154C13.6422 5.6659 13.75 5.83953 13.75 6.02961V17.9945C13.75 18.363 13.365 18.6049 13.033 18.4449L9.22048 16.6081C9.04748 16.5248 8.9375 16.3497 8.9375 16.1577V4.14151C8.9375 3.77066 9.32706 3.52886 9.6594 3.69345L13.4719 5.58154Z" fill="currentColor"/>
  <path d="M20.168 5.94857V14.8677C20.168 15.4452 19.7555 16.1602 19.2421 16.4536L16.1041 18.252C15.7708 18.4431 15.3555 18.2024 15.3555 17.8182V5.8264C15.3555 5.64688 15.4517 5.48115 15.6076 5.39216L17.4271 4.35357C18.9305 3.49191 20.168 4.20691 20.168 5.94857Z" fill="currentColor"/>
</svg>