<svg width="12" height="14" viewBox="0 0 12 14" fill="none" xmlns="http://www.w3.org/2000/svg">
<path d="M11.7448 4.63268C11.0448 1.55268 8.35811 0.166016 5.99811 0.166016C5.99811 0.166016 5.99811 0.166016 5.99144 0.166016C3.63811 0.166016 0.944777 1.54602 0.244777 4.62602C-0.535223 8.06601 1.57144 10.9793 3.47811 12.8127C4.18478 13.4927 5.09144 13.8327 5.99811 13.8327C6.90478 13.8327 7.81144 13.4927 8.51144 12.8127C10.4181 10.9793 12.5248 8.07268 11.7448 4.63268ZM5.99811 7.97268C4.83811 7.97268 3.89811 7.03268 3.89811 5.87268C3.89811 4.71268 4.83811 3.77268 5.99811 3.77268C7.15811 3.77268 8.09811 4.71268 8.09811 5.87268C8.09811 7.03268 7.15811 7.97268 5.99811 7.97268Z" fill="currentColor"/>
</svg>
