<svg width="21" height="21" data-name="레이어 2" xmlns="http://www.w3.org/2000/svg" viewBox="0 0 21 20.5">
  <g data-name="레이어 1">
    <path fill="#967af6"  d="m11.99,9.04v.08c.41.26.89.41,1.41.41s1.02-.16,1.44-.43v-.06c0-.64-.64-1.16-1.43-1.16s-1.43.52-1.43,1.16Z"/>
    <path fill="#967af6"  d="m13.42,7.54c-.43,0-.77-.35-.77-.77s.35-.77.77-.77.77.35.77.77-.35.77-.77.77Z"/>
    <path fill="#967af6"  d="m3.13,9.04v.08c.41.26.89.41,1.41.41s1.02-.16,1.44-.43v-.06c0-.64-.64-1.16-1.42-1.16s-1.43.52-1.43,1.16Z"/>
    <path fill="#967af6"  d="m4.56,7.54c-.43,0-.77-.35-.77-.77s.35-.77.77-.77.77.35.77.77-.35.77-.77.77Z"/>
    <path fill="#967af6"  d="m3.13,16.04v.08c.41.26.89.41,1.41.41s1.02-.16,1.44-.43v-.06c0-.64-.64-1.16-1.42-1.16s-1.43.52-1.43,1.16Z"/>
    <path fill="#967af6"  d="m4.56,14.54c-.43,0-.77-.35-.77-.77s.35-.77.77-.77.77.35.77.77-.35.77-.77.77Z"/>
    <path fill="#967af6"  d="m7.56,12.54v.08c.41.26.89.41,1.41.41s1.02-.16,1.44-.43v-.06c0-.64-.64-1.16-1.43-1.16s-1.43.52-1.43,1.16Z"/>
    <path fill="#967af6"  d="m8.99,11.04c-.43,0-.77-.35-.77-.77s.35-.77.77-.77.77.35.77.77-.35.77-.77.77Z"/>
    <path fill="#967af6" fill-rule="evenodd" d="m16,20.5c2.76,0,5-2.24,5-5s-2.24-5-5-5-5,2.24-5,5,2.24,5,5,5Zm-4.29-5.35v.75c0,.45.36.81.81.81.78,0,1.09.55.7,1.22-.22.39-.09.89.3,1.11l.74.42c.34.2.78.08.98-.26l.05-.08c.39-.67,1.02-.67,1.41,0l.05.08c.2.34.64.46.98.26l.74-.42c.39-.22.52-.72.3-1.11-.39-.67-.07-1.22.7-1.22.45,0,.81-.37.81-.81v-.75c0-.45-.37-.81-.81-.81-.78,0-1.09-.55-.7-1.22.22-.39.09-.89-.3-1.11l-.74-.42c-.34-.2-.78-.08-.98.26l-.05.08c-.39.67-1.02.67-1.41,0l-.05-.08c-.2-.34-.64-.46-.98-.26l-.74.42c-.39.22-.52.72-.3,1.11.39.67.07,1.22-.7,1.22-.45,0-.81.37-.81.81Z"/>
    <path fill="#967af6"  fill-rule="evenodd" isolation="isolate" opacity=".4" d="m13.01,1c.15.26.22.56.22.88v.94c0,1.04-.84,1.88-1.88,1.88h-4.71c-1.04,0-1.88-.84-1.88-1.88v-.94c0-.32.08-.62.23-.88C1.5,1,0,3,0,6v8.5c0,3,1.5,5,5,5h8c-1.22-.91-2-2.37-2-4,0-2.76,2.23-5,5-5,.71,0,1.39.15,2,.41v-4.91c0-3-1.5-5-4.99-5Z"/>
    <path fill="#967af6" d="m13.01,1c-.31-.6-.94-1-1.66-1h-4.7c-.72,0-1.35.4-1.66,1-.15.26-.23.56-.23.88v.94c0,1.04.84,1.88,1.88,1.88h4.71c1.04,0,1.88-.84,1.88-1.88v-.94c0-.32-.07-.62-.22-.88Z"/>
    <path fill="#967af6"  d="m16.1,17.05c.77,0,1.39-.62,1.39-1.39s-.62-1.39-1.39-1.39-1.39.62-1.39,1.39.62,1.39,1.39,1.39Z"/>
  </g>
</svg>