<svg width="21" height="21" xmlns="http://www.w3.org/2000/svg" viewBox="0 0 18 20.5">
  <g>
    <path fill="#54bc65" fill-rule="evenodd" isolation="isolate" opacity=".4" d="m9,0c-1.1,0-2,.9-2,2h-3C1.79,2,0,3.79,0,6v10.5c0,2.21,1.79,4,4,4h10c2.21,0,4-1.79,4-4V6c0-2.21-1.79-4-4-4h-3c0-1.1-.9-2-2-2Zm.5,2c0-.28-.22-.5-.5-.5s-.5.22-.5.5h1Z"/>
    <path fill="#54bc65" fill-rule="evenodd" d="m5.25,4.25c-1.66,0-3,1.34-3,3v8c0,1.66,1.34,3,3,3h7.5c1.66,0,3-1.34,3-3V7.25c0-1.66-1.34-3-3-3h-7.5Zm-.75,2.75c0,.55.45,1,1.01,1s.99-.45.99-1-.45-1-1-1-1,.45-1,1Zm8.51,3.5c-.56,0-1.01-.45-1.01-1s.45-1,1-1,1,.45,1,1-.44,1-.99,1Zm-4.62,0l.53.53c.11.11.11.28,0,.39-.05.05-.12.08-.19.08s-.14-.03-.19-.08l-.53-.53-.54.54c-.05.05-.12.08-.19.08s-.14-.03-.19-.08c-.11-.11-.11-.28,0-.39l.54-.54-.53-.53c-.11-.11-.11-.28,0-.39.11-.11.28-.11.39,0l.53.53.51-.51c.11-.11.28-.11.39,0,.11.11.11.28,0,.39l-.51.51Zm5.53,5.53l-.53-.53.51-.51c.11-.11.11-.28,0-.39-.11-.11-.28-.11-.39,0l-.51.51-.53-.53c-.11-.11-.28-.11-.39,0-.11.11-.11.28,0,.39l.53.53-.54.54c-.11.11-.11.28,0,.39.05.05.12.08.19.08s.14-.03.19-.08l.54-.54.53.53c.05.05.12.08.19.08s.14-.03.19-.08c.11-.11.11-.28,0-.39Zm-8.53-.53l.53.53c.11.11.11.28,0,.39-.05.05-.12.08-.19.08s-.14-.03-.19-.08l-.53-.53-.54.54c-.05.05-.12.08-.19.08s-.14-.03-.19-.08c-.11-.11-.11-.28,0-.39l.54-.54-.53-.53c-.11-.11-.11-.28,0-.39.11-.11.28-.11.39,0l.53.53.51-.51c.11-.11.28-.11.39,0,.11.11.11.28,0,.39l-.51.51Zm-.94-6.03l.13.37c.05.13.19.2.32.15.13-.05.2-.19.15-.32l-.32-.9c-.01-.08-.06-.15-.14-.18h0s0,0,0,0c-.06-.03-.13-.03-.19,0l-.94.34c-.13.05-.2.19-.15.32.05.13.19.2.32.15l.37-.14-.15.31c-.67,1.43-.43,3.06.49,4.22.09.11.24.13.35.04.11-.09.13-.24.04-.35-.81-1.02-1.02-2.44-.43-3.69l.14-.3Zm3.91,4.49c-.05.06-.08.14-.06.22,0,0,0,0,0,0,0,0,0,0,0,0,.01.07.05.12.11.16l.83.55c.11.08.27.05.35-.07.08-.11.05-.27-.07-.35l-.33-.22.33-.07c1.55-.3,2.72-1.46,3.11-2.89.04-.13-.04-.27-.18-.31-.13-.04-.27.04-.31.18-.34,1.26-1.36,2.27-2.72,2.53l-.33.06.22-.32c.08-.11.05-.27-.07-.35-.11-.08-.27-.05-.35.07l-.53.79Z"/>
  </g>
</svg>