<svg width="18" height="18" viewBox="0 0 18 18" fill="currentColor" xmlns="http://www.w3.org/2000/svg">
<path d="M3 9H0.708666C0.31728 9 0 8.68272 0 8.29133V6.50638C0 4.87209 0.48375 3.27437 1.39029 1.91457L1.52497 1.71255C1.83626 1.24561 2.26402 0.867989 2.76597 0.617015C2.92098 0.539512 3.08746 0.487505 3.25902 0.462997L6.09738 0.0575166C6.34763 0.0217669 6.59853 0.118241 6.76037 0.312439C7.92591 1.71109 10.0741 1.71109 11.2396 0.312439C11.4015 0.118241 11.6524 0.0217668 11.9026 0.0575166L14.741 0.462997C14.9125 0.487505 15.079 0.539512 15.234 0.617015C15.736 0.867989 16.1637 1.24561 16.475 1.71255L16.6097 1.91457C17.5163 3.27437 18 4.87209 18 6.50638V8.29133C18 8.68272 17.6827 9 17.2913 9H15V17C15 17.5523 14.5523 18 14 18H4C3.44772 18 3 17.5523 3 17V9Z" fill="currentColor"/>
</svg>
