<svg width="21" height="21"  xmlns="http://www.w3.org/2000/svg" viewBox="0 0 21.96 17.89">
  <g >
    <path fill="#121212" opacity=".4" isolation="isolate"  d="m.09,5.14L4.62.1l.12,6.9-1.55,1.37c-.15.13-.38.12-.51-.02L.1,5.64c-.13-.14-.14-.36,0-.5Z"/>
    <path fill="#121212" opacity=".4" isolation="isolate"  d="m21.85,5.64l-2.57,2.71c-.14.14-.36.15-.51.02l-1.55-1.37.12-6.9,4.52,5.03c.13.14.13.36,0,.5Z"/>
    <path fill="#121212" fill-rule="evenodd"   d="m17.04,0h-3.72c0,1.29-1.05,2.34-2.34,2.34s-2.34-1.05-2.34-2.34h-3.74c-.23,0-.42.19-.42.42l.28,15.61h12.44l.28-15.59c0-.24-.2-.44-.44-.44Zm-2.47,5.59c-.63,0-1.14-.51-1.14-1.13s.51-1.14,1.14-1.14,1.13.51,1.13,1.14-.51,1.13-1.13,1.13Z"/>
    <path fill="#121212" opacity=".4"  d="m4.76,16.02h12.44v1.17c0,.38-.31.7-.7.7H5.46c-.38,0-.7-.31-.7-.7v-1.17h0Z"/>
    <path fill="#121212" opacity=".4"  d="m13.32,0c0,1.29-1.05,2.34-2.34,2.34s-2.34-1.05-2.34-2.34h4.68Z"/>
    <path fill="#121212" fill-rule="evenodd" opacity=".4"  d="m15.7,4.46c0,.62-.51,1.13-1.13,1.13s-1.14-.51-1.14-1.13.51-1.14,1.14-1.14,1.13.51,1.13,1.14Z"/>
  </g>
</svg>